# xmcd
# 
# Track frame offsets:
#     182
#     20192
#     43470
#     65060
#     83677
#     99172
#     123580
#     146452
#     162055
#     183052
#     195950
#     207712
#     224952
# 
# Disc length: 3341
# 
# Revision: 1
# Processed by: cddbd v1.5.2PL0 Copyright (c) Steve Scherf et al.
# Submitted via: fre:ac v1.0.17
# 
DISCID=c30d0b0d
DTITLE=James - Laid
DYEAR=1993
DGENRE=
TTITLE0=Out to get you
TTITLE1=Sometimes (Lester Piggott)
TTITLE2=Dream Thrum
TTITLE3=One of the three
TTITLE4=Say something
TTITLE5=Five-O
TTITLE6=P.S.
TTITLE7=Everybody knows
TTITLE8=Knuckle too far
TTITLE9=Low low low
TTITLE10=Laid
TTITLE11=Lullaby
TTITLE12=Skindiving
EXTD=
EXTT0=
EXTT1=
EXTT2=
EXTT3=
EXTT4=
EXTT5=
EXTT6=
EXTT7=
EXTT8=
EXTT9=
EXTT10=
EXTT11=
EXTT12=
PLAYORDER=
